toadie.ufo
<glyph name="glyph00001" format="1">
  <advance width="378"/>
  <unicode hex="0021"/>
  <outline>
    <contour>
      <point x="96" y="943" type="qcurve"/>
      <point x="93" y="934"/>
      <point x="94" y="804"/>
      <point x="98" y="702" type="qcurve" smooth="yes"/>
      <point x="101" y="640"/>
      <point x="105" y="502"/>
      <point x="105" y="422" type="qcurve" smooth="yes"/>
      <point x="106" y="300"/>
      <point x="110" y="184"/>
      <point x="113" y="172" type="qcurve" smooth="yes"/>
      <point x="115" y="164"/>
      <point x="124" y="161"/>
      <point x="126" y="169" type="qcurve"/>
      <point x="126" y="171"/>
      <point x="125" y="202"/>
      <point x="124" y="224" type="qcurve" smooth="yes" name="inserted"/>
      <point x="123" y="245"/>
      <point x="121" y="360"/>
      <point x="121" y="426" type="qcurve" smooth="yes"/>
      <point x="120" y="505"/>
      <point x="116" y="645"/>
      <point x="114" y="707" type="qcurve" smooth="yes"/>
      <point x="112" y="759"/>
      <point x="109" y="860"/>
      <point x="109" y="883" type="qcurve" smooth="yes"/>
      <point x="109" y="923"/>
      <point x="106" y="948"/>
      <point x="101" y="948" type="qcurve"/>
      <point x="100" y="948" name="inserted"/>
      <point x="97" y="945"/>
      <point x="96" y="943" type="qcurve"/>
      <point x="96" y="943" name="inserted"/>
      <point x="96" y="943"/>
    </contour>
    <contour>
      <point x="111" y="60" type="qcurve"/>
      <point x="107" y="58" name="inserted"/>
      <point x="102" y="47"/>
      <point x="99" y="39" type="qcurve" smooth="yes"/>
      <point x="98" y="31"/>
      <point x="102" y="21"/>
      <point x="106" y="21" type="qcurve" smooth="yes" name="inserted"/>
      <point x="108" y="21" name="inserted"/>
      <point x="111" y="17"/>
      <point x="112" y="13" type="qcurve" smooth="yes"/>
      <point x="115" y="1"/>
      <point x="129" y="-6"/>
      <point x="136" y="1" type="qcurve"/>
      <point x="143" y="10"/>
      <point x="142" y="48"/>
      <point x="135" y="58" type="qcurve"/>
      <point x="130" y="62"/>
      <point x="116" y="64"/>
      <point x="111" y="60" type="qcurve"/>
      <point x="111" y="60" name="inserted"/>
      <point x="111" y="60"/>
    </contour>
  </outline>
</glyph>
<glyph name="glyph00003" format="1">
  <advance width="582"/>
  <unicode hex="0023"/>
  <outline>
    <contour>
      <point x="209" y="473" type="qcurve"/>
      <point x="208" y="471"/>
      <point x="202" y="459"/>
      <point x="200" y="453" type="qcurve"/>
      <point x="197" y="445"/>
      <point x="195" y="407"/>
      <point x="194" y="352" type="qcurve" smooth="yes"/>
      <point x="192" y="268" type="line"/>
      <point x="188" y="266" type="line"/>
      <point x="181" y="263"/>
      <point x="136" y="257"/>
      <point x="122" y="256" type="qcurve" smooth="yes"/>
      <point x="113" y="255"/>
      <point x="106" y="248"/>
      <point x="109" y="243" type="qcurve" smooth="yes"/>
      <point x="111" y="241"/>
      <point x="120" y="238"/>
      <point x="135" y="239" type="qcurve" smooth="yes"/>
      <point x="145" y="239"/>
      <point x="167" y="241"/>
      <point x="173" y="243" type="qcurve" smooth="yes" name="inserted"/>
      <point x="180" y="244"/>
      <point x="191" y="245"/>
      <point x="192" y="245" type="qcurve"/>
      <point x="193" y="242"/>
      <point x="192" y="187"/>
      <point x="189" y="161" type="qcurve" smooth="yes"/>
      <point x="189" y="147" type="line"/>
      <point x="161" y="132" type="line" smooth="yes"/>
      <point x="134" y="117"/>
      <point x="112" y="99"/>
      <point x="113" y="94" type="qcurve"/>
      <point x="114" y="86"/>
      <point x="126" y="88"/>
      <point x="140" y="97" type="qcurve" smooth="yes" name="inserted"/>
      <point x="153" y="105"/>
      <point x="183" y="121"/>
      <point x="186" y="122" type="qcurve"/>
      <point x="188" y="122" name="inserted"/>
      <point x="189" y="81"/>
      <point x="189" y="38" type="qcurve"/>
      <point x="189" y="-2"/>
      <point x="190" y="-48"/>
      <point x="191" y="-50" type="qcurve"/>
      <point x="194" y="-54"/>
      <point x="204" y="-55"/>
      <point x="208" y="-52" type="qcurve"/>
      <point x="208" y="-50"/>
      <point x="212" y="-40"/>
      <point x="214" y="-35" type="qcurve" smooth="yes"/>
      <point x="216" y="-27"/>
      <point x="215" y="-20"/>
      <point x="212" y="-16" type="qcurve"/>
      <point x="209" y="-13"/>
      <point x="208" y="14"/>
      <point x="208" y="61" type="qcurve" smooth="yes"/>
      <point x="208" y="132" type="line"/>
      <point x="221" y="138" type="line"/>
      <point x="233" y="143"/>
      <point x="290" y="165"/>
      <point x="295" y="165" type="qcurve"/>
      <point x="295" y="165"/>
      <point x="296" y="117"/>
      <point x="296" y="82" type="qcurve" smooth="yes"/>
      <point x="296" y="29"/>
      <point x="297" y="-5"/>
      <point x="299" y="-5" type="qcurve"/>
      <point x="302" y="-9"/>
      <point x="307" y="-9"/>
      <point x="310" y="-5" type="qcurve"/>
      <point x="312" y="-5"/>
      <point x="314" y="29"/>
      <point x="314" y="83" type="qcurve" smooth="yes"/>
      <point x="314" y="139"/>
      <point x="315" y="170"/>
      <point x="318" y="170" type="qcurve"/>
      <point x="322" y="172"/>
      <point x="353" y="178"/>
      <point x="376" y="180" type="qcurve" smooth="yes" name="inserted"/>
      <point x="399" y="183"/>
      <point x="433" y="189"/>
      <point x="436" y="192" type="qcurve" smooth="yes" name="inserted"/>
      <point x="439" y="195"/>
      <point x="439" y="204"/>
      <point x="434" y="206" type="qcurve"/>
      <point x="433" y="208"/>
      <point x="421" y="207"/>
      <point x="412" y="205" type="qcurve" smooth="yes"/>
      <point x="408" y="204" name="inserted"/>
      <point x="397" y="202"/>
      <point x="390" y="201" type="qcurve" smooth="yes"/>
      <point x="364" y="197" type="line"/>
      <point x="324" y="193" type="line"/>
      <point x="314" y="191" type="line"/>
      <point x="314" y="288" type="line"/>
      <point x="323" y="291" type="line" smooth="yes"/>
      <point x="333" y="295"/>
      <point x="391" y="312"/>
      <point x="407" y="316" type="qcurve" smooth="yes"/>
      <point x="412" y="317"/>
      <point x="421" y="321"/>
      <point x="422" y="321" type="qcurve"/>
      <point x="425" y="325"/>
      <point x="424" y="333"/>
      <point x="421" y="335" type="qcurve" smooth="yes" name="inserted"/>
      <point x="417" y="339"/>
      <point x="390" y="333"/>
      <point x="354" y="322" type="qcurve" smooth="yes"/>
      <point x="339" y="317"/>
      <point x="318" y="312"/>
      <point x="317" y="312" type="qcurve"/>
      <point x="315" y="317"/>
      <point x="321" y="382"/>
      <point x="324" y="395" type="qcurve" smooth="yes"/>
      <point x="324" y="400"/>
      <point x="330" y="413"/>
      <point x="333" y="419" type="qcurve" smooth="yes"/>
      <point x="340" y="433"/>
      <point x="338" y="446"/>
      <point x="329" y="445" type="qcurve" smooth="yes"/>
      <point x="327" y="444" name="inserted"/>
      <point x="319" y="435"/>
      <point x="315" y="426" type="qcurve" smooth="yes"/>
      <point x="308" y="412"/>
      <point x="301" y="374"/>
      <point x="299" y="338" type="qcurve" smooth="yes"/>
      <point x="298" y="325"/>
      <point x="296" y="306"/>
      <point x="296" y="305" type="qcurve" smooth="yes" name="inserted"/>
      <point x="295" y="304"/>
      <point x="272" y="294"/>
      <point x="256" y="289" type="qcurve" smooth="yes"/>
      <point x="214" y="274" type="line"/>
      <point x="212" y="272"/>
      <point x="212" y="303"/>
      <point x="213" y="353" type="qcurve" smooth="yes"/>
      <point x="214" y="407"/>
      <point x="216" y="442"/>
      <point x="219" y="450" type="qcurve" smooth="yes"/>
      <point x="224" y="463" name="inserted"/>
      <point x="223" y="477"/>
      <point x="217" y="478" type="qcurve"/>
      <point x="215" y="479" name="inserted"/>
      <point x="211" y="477"/>
      <point x="209" y="473" type="qcurve"/>
      <point x="209" y="473" name="inserted"/>
      <point x="209" y="473"/>
    </contour>
    <contour>
      <point x="294" y="187" type="qcurve"/>
      <point x="293" y="186"/>
      <point x="277" y="180"/>
      <point x="267" y="176" type="qcurve" smooth="yes"/>
      <point x="245" y="169" type="line" smooth="yes"/>
      <point x="239" y="166" name="inserted"/>
      <point x="230" y="163"/>
      <point x="227" y="161" type="qcurve" smooth="yes"/>
      <point x="215" y="157" type="line"/>
      <point x="211" y="156" type="line"/>
      <point x="209" y="161"/>
      <point x="212" y="245"/>
      <point x="214" y="252" type="qcurve"/>
      <point x="215" y="254"/>
      <point x="239" y="262"/>
      <point x="255" y="268" type="qcurve" smooth="yes"/>
      <point x="295" y="282" type="line"/>
      <point x="295" y="235" type="line" smooth="yes"/>
      <point x="295" y="215"/>
      <point x="295" y="187"/>
      <point x="294" y="187" type="qcurve"/>
      <point x="294" y="187" name="inserted"/>
      <point x="294" y="187"/>
    </contour>
  </outline>
</glyph>
<glyph name="glyph00016" format="1">
  <advance width="609.0"/>
  <unicode hex="0030"/>
  <outline>
    <contour>
      <point x="233" y="562" type="qcurve"/>
      <point x="208" y="560"/>
      <point x="168" y="548"/>
      <point x="157" y="539" type="qcurve" smooth="yes"/>
      <point x="137" y="524"/>
      <point x="108" y="453"/>
      <point x="102" y="399" type="qcurve" smooth="yes"/>
      <point x="96" y="356"/>
      <point x="101" y="217"/>
      <point x="108" y="180" type="qcurve" smooth="yes"/>
      <point x="123" y="126"/>
      <point x="172" y="45"/>
      <point x="204" y="24" type="qcurve" smooth="yes"/>
      <point x="220" y="15"/>
      <point x="269" y="1"/>
      <point x="288" y="1" type="qcurve" smooth="yes"/>
      <point x="306" y="1"/>
      <point x="345" y="12"/>
      <point x="360" y="21" type="qcurve" smooth="yes"/>
      <point x="381" y="36"/>
      <point x="420" y="104"/>
      <point x="429" y="142" type="qcurve" smooth="yes"/>
      <point x="436" y="168"/>
      <point x="443" y="262"/>
      <point x="443" y="312" type="qcurve" smooth="yes"/>
      <point x="444" y="423"/>
      <point x="389" y="545"/>
      <point x="331" y="560" type="qcurve" smooth="yes"/>
      <point x="318" y="563"/>
      <point x="263" y="564"/>
      <point x="233" y="562" type="qcurve"/>
      <point x="233" y="562" name="inserted"/>
      <point x="233" y="562"/>
    </contour>
    <contour>
      <point x="332" y="539" type="qcurve"/>
      <point x="356" y="527"/>
      <point x="393" y="470"/>
      <point x="403" y="428" type="qcurve" smooth="yes"/>
      <point x="412" y="378"/>
      <point x="410" y="193"/>
      <point x="398" y="144" type="qcurve" smooth="yes"/>
      <point x="389" y="108"/>
      <point x="355" y="49"/>
      <point x="338" y="36" type="qcurve"/>
      <point x="301" y="10"/>
      <point x="215" y="36"/>
      <point x="181" y="83" type="qcurve" smooth="yes"/>
      <point x="169" y="102"/>
      <point x="147" y="155"/>
      <point x="140" y="181" type="qcurve" smooth="yes"/>
      <point x="137" y="200"/>
      <point x="131" y="246"/>
      <point x="130" y="289" type="qcurve" smooth="yes"/>
      <point x="129" y="360"/>
      <point x="140" y="456"/>
      <point x="156" y="490" type="qcurve" smooth="yes"/>
      <point x="160" y="499"/>
      <point x="166" y="506"/>
      <point x="171" y="506" type="qcurve" smooth="yes" name="inserted"/>
      <point x="176" y="506"/>
      <point x="188" y="513"/>
      <point x="194" y="517" type="qcurve"/>
      <point x="205" y="525"/>
      <point x="238" y="540"/>
      <point x="252" y="543" type="qcurve"/>
      <point x="257" y="544"/>
      <point x="279" y="546"/>
      <point x="291" y="546" type="qcurve"/>
      <point x="307" y="545"/>
      <point x="323" y="543"/>
      <point x="332" y="539" type="qcurve"/>
      <point x="332" y="539" name="inserted"/>
      <point x="332" y="539"/>
    </contour>
  </outline>
</glyph>
<glyph name="glyph00018" format="1">
  <advance width="695"/>
  <unicode hex="0032"/>
  <outline>
    <contour>
      <point x="300" y="536" type="qcurve"/>
      <point x="271" y="528"/>
      <point x="224" y="496"/>
      <point x="211" y="473" type="qcurve" smooth="yes"/>
      <point x="200" y="454"/>
      <point x="200" y="405"/>
      <point x="211" y="386" type="qcurve" smooth="yes"/>
      <point x="219" y="373"/>
      <point x="234" y="362"/>
      <point x="242" y="363" type="qcurve" smooth="yes" name="inserted"/>
      <point x="250" y="364"/>
      <point x="251" y="382"/>
      <point x="242" y="394" type="qcurve" smooth="yes"/>
      <point x="234" y="409"/>
      <point x="233" y="448"/>
      <point x="242" y="464" type="qcurve" smooth="yes"/>
      <point x="254" y="486"/>
      <point x="312" y="514"/>
      <point x="340" y="513" type="qcurve" smooth="yes"/>
      <point x="358" y="511"/>
      <point x="372" y="482"/>
      <point x="374" y="445" type="qcurve" smooth="yes"/>
      <point x="376" y="363"/>
      <point x="319" y="184"/>
      <point x="258" y="82" type="qcurve" smooth="yes"/>
      <point x="246" y="62"/>
      <point x="228" y="31"/>
      <point x="226" y="27" type="qcurve"/>
      <point x="224" y="20"/>
      <point x="235" y="8"/>
      <point x="245" y="7" type="qcurve"/>
      <point x="251" y="7"/>
      <point x="298" y="20"/>
      <point x="330" y="28" type="qcurve" smooth="yes" name="inserted"/>
      <point x="362" y="38"/>
      <point x="439" y="59"/>
      <point x="463" y="65" type="qcurve" smooth="yes"/>
      <point x="511" y="76"/>
      <point x="535" y="88"/>
      <point x="523" y="97" type="qcurve"/>
      <point x="521" y="100"/>
      <point x="513" y="102"/>
      <point x="509" y="102" type="qcurve"/>
      <point x="498" y="101"/>
      <point x="386" y="73"/>
      <point x="337" y="59" type="qcurve" smooth="yes"/>
      <point x="314" y="52"/>
      <point x="281" y="43"/>
      <point x="277" y="43" type="qcurve" smooth="yes" name="inserted"/>
      <point x="274" y="43"/>
      <point x="277" y="52"/>
      <point x="285" y="65" type="qcurve" smooth="yes"/>
      <point x="311" y="105"/>
      <point x="361" y="212"/>
      <point x="379" y="259" type="qcurve" smooth="yes"/>
      <point x="393" y="301"/>
      <point x="404" y="373"/>
      <point x="404" y="425" type="qcurve" smooth="yes"/>
      <point x="404" y="472"/>
      <point x="401" y="499"/>
      <point x="393" y="511" type="qcurve" smooth="yes"/>
      <point x="387" y="519"/>
      <point x="376" y="533"/>
      <point x="370" y="535" type="qcurve" smooth="yes"/>
      <point x="358" y="539"/>
      <point x="316" y="539"/>
      <point x="300" y="536" type="qcurve"/>
      <point x="300" y="536" name="inserted"/>
      <point x="300" y="536"/>
    </contour>
  </outline>
</glyph>
<glyph name="glyph00019" format="1">
  <advance width="636.0"/>
  <unicode hex="0033"/>
  <outline>
    <contour>
      <point x="308" y="584" type="qcurve"/>
      <point x="288" y="578"/>
      <point x="244" y="550"/>
      <point x="216" y="525" type="qcurve" smooth="yes"/>
      <point x="180" y="495"/>
      <point x="150" y="445"/>
      <point x="150" y="417" type="qcurve" smooth="yes"/>
      <point x="150" y="397"/>
      <point x="159" y="380"/>
      <point x="168" y="380" type="qcurve"/>
      <point x="177" y="380"/>
      <point x="185" y="396"/>
      <point x="187" y="418" type="qcurve" smooth="yes"/>
      <point x="188" y="435"/>
      <point x="197" y="455"/>
      <point x="206" y="469" type="qcurve" smooth="yes"/>
      <point x="229" y="498"/>
      <point x="310" y="554"/>
      <point x="324" y="552" type="qcurve"/>
      <point x="333" y="548"/>
      <point x="325" y="504"/>
      <point x="313" y="474" type="qcurve" smooth="yes"/>
      <point x="299" y="443"/>
      <point x="239" y="351"/>
      <point x="215" y="321" type="qcurve" smooth="yes"/>
      <point x="181" y="283"/>
      <point x="168" y="248"/>
      <point x="185" y="237" type="qcurve"/>
      <point x="190" y="232"/>
      <point x="215" y="228"/>
      <point x="242" y="227" type="qcurve" smooth="yes"/>
      <point x="290" y="226"/>
      <point x="349" y="214"/>
      <point x="370" y="206" type="qcurve"/>
      <point x="384" y="201"/>
      <point x="398" y="189"/>
      <point x="402" y="178" type="qcurve"/>
      <point x="409" y="159"/>
      <point x="407" y="129"/>
      <point x="395" y="118" type="qcurve" smooth="yes"/>
      <point x="368" y="93"/>
      <point x="219" y="52"/>
      <point x="130" y="44" type="qcurve" smooth="yes"/>
      <point x="101" y="41"/>
      <point x="77" y="35"/>
      <point x="74" y="32" type="qcurve" smooth="yes"/>
      <point x="72" y="28" name="inserted"/>
      <point x="72" y="21"/>
      <point x="74" y="18" type="qcurve"/>
      <point x="89" y="6"/>
      <point x="244" y="24"/>
      <point x="319" y="46" type="qcurve" smooth="yes"/>
      <point x="397" y="69"/>
      <point x="454" y="133"/>
      <point x="439" y="179" type="qcurve" smooth="yes"/>
      <point x="430" y="217"/>
      <point x="336" y="256"/>
      <point x="258" y="257" type="qcurve" smooth="yes"/>
      <point x="241" y="257"/>
      <point x="216" y="259"/>
      <point x="215" y="261" type="qcurve" smooth="yes" name="inserted"/>
      <point x="214" y="263"/>
      <point x="228" y="283"/>
      <point x="239" y="299" type="qcurve" smooth="yes"/>
      <point x="283" y="348"/>
      <point x="348" y="457"/>
      <point x="359" y="498" type="qcurve" smooth="yes"/>
      <point x="372" y="545"/>
      <point x="342" y="594"/>
      <point x="308" y="584" type="qcurve"/>
      <point x="308" y="584" name="inserted"/>
      <point x="308" y="584"/>
    </contour>
  </outline>
</glyph>
<glyph name="glyph00020" format="1">
  <advance width="483.0"/>
  <unicode hex="0034"/>
  <outline>
    <contour>
      <point x="129" y="596" type="qcurve"/>
      <point x="124" y="593"/>
      <point x="119" y="561"/>
      <point x="116" y="518" type="qcurve" smooth="yes"/>
      <point x="114" y="472"/>
      <point x="102" y="409"/>
      <point x="86" y="362" type="qcurve" smooth="yes"/>
      <point x="73" y="325"/>
      <point x="62" y="267"/>
      <point x="65" y="254" type="qcurve"/>
      <point x="66" y="241"/>
      <point x="99" y="234"/>
      <point x="155" y="234" type="qcurve" smooth="yes"/>
      <point x="183" y="234"/>
      <point x="230" y="234"/>
      <point x="237" y="235" type="qcurve" smooth="yes"/>
      <point x="251" y="237" type="line"/>
      <point x="254" y="127" type="line" smooth="yes"/>
      <point x="255" y="55"/>
      <point x="258" y="14"/>
      <point x="262" y="14" type="qcurve"/>
      <point x="266" y="12" name="inserted"/>
      <point x="272" y="12"/>
      <point x="276" y="14" type="qcurve"/>
      <point x="280" y="10"/>
      <point x="283" y="99"/>
      <point x="283" y="269" type="qcurve" smooth="yes" name="inserted"/>
      <point x="283" y="440"/>
      <point x="280" y="528"/>
      <point x="276" y="524" type="qcurve"/>
      <point x="272" y="526" name="inserted"/>
      <point x="266" y="526"/>
      <point x="262" y="524" type="qcurve"/>
      <point x="258" y="525"/>
      <point x="255" y="478"/>
      <point x="254" y="392" type="qcurve" smooth="yes"/>
      <point x="254" y="264" type="line"/>
      <point x="245" y="262" type="line"/>
      <point x="230" y="259"/>
      <point x="119" y="257"/>
      <point x="103" y="258" type="qcurve"/>
      <point x="96" y="259"/>
      <point x="93" y="266"/>
      <point x="95" y="279" type="qcurve" smooth="yes"/>
      <point x="97" y="288"/>
      <point x="108" y="329"/>
      <point x="114" y="351" type="qcurve" smooth="yes"/>
      <point x="132" y="405"/>
      <point x="145" y="468"/>
      <point x="147" y="515" type="qcurve" smooth="yes"/>
      <point x="148" y="540"/>
      <point x="152" y="578"/>
      <point x="153" y="580" type="qcurve"/>
      <point x="155" y="592"/>
      <point x="138" y="604"/>
      <point x="129" y="596" type="qcurve"/>
      <point x="129" y="596" name="inserted"/>
      <point x="129" y="596"/>
    </contour>
  </outline>
</glyph>
<glyph name="glyph00028" format="1">
  <advance width="854.0"/>
  <unicode hex="0042"/>
  <outline>
    <contour>
      <point x="506" y="746" type="qcurve"/>
      <point x="493" y="745"/>
      <point x="451" y="739"/>
      <point x="432" y="735" type="qcurve" smooth="yes"/>
      <point x="381" y="726" type="line" smooth="yes"/>
      <point x="374" y="724"/>
      <point x="365" y="739"/>
      <point x="359" y="741" type="qcurve" smooth="yes" name="inserted"/>
      <point x="356" y="741" name="inserted"/>
      <point x="349" y="739"/>
      <point x="346" y="736" type="qcurve"/>
      <point x="345" y="735"/>
      <point x="341" y="727"/>
      <point x="340" y="723" type="qcurve"/>
      <point x="339" y="717"/>
      <point x="330" y="712"/>
      <point x="318" y="708" type="qcurve"/>
      <point x="266" y="693"/>
      <point x="176" y="645"/>
      <point x="157" y="623" type="qcurve"/>
      <point x="151" y="615"/>
      <point x="146" y="603"/>
      <point x="146" y="594" type="qcurve" smooth="yes"/>
      <point x="146" y="577"/>
      <point x="159" y="557"/>
      <point x="169" y="556" type="qcurve"/>
      <point x="175" y="556"/>
      <point x="178" y="564"/>
      <point x="177" y="580" type="qcurve" smooth="yes"/>
      <point x="175" y="605" type="line"/>
      <point x="200" y="625" type="line" smooth="yes"/>
      <point x="214" y="635"/>
      <point x="246" y="653"/>
      <point x="274" y="665" type="qcurve" smooth="yes"/>
      <point x="311" y="678" type="line"/>
      <point x="326" y="685"/>
      <point x="331" y="685"/>
      <point x="333" y="672" type="qcurve" smooth="yes" name="inserted"/>
      <point x="334" y="666" name="inserted"/>
      <point x="336" y="645"/>
      <point x="336" y="631" type="qcurve" smooth="yes"/>
      <point x="337" y="608"/>
      <point x="341" y="554"/>
      <point x="344" y="534" type="qcurve" smooth="yes"/>
      <point x="348" y="493" type="line"/>
      <point x="354" y="419" type="line"/>
      <point x="329" y="395" type="line"/>
      <point x="319" y="384"/>
      <point x="293" y="362"/>
      <point x="284" y="354" type="qcurve" smooth="yes"/>
      <point x="268" y="342"/>
      <point x="260" y="325"/>
      <point x="267" y="320" type="qcurve" smooth="yes"/>
      <point x="273" y="316" name="inserted"/>
      <point x="289" y="318"/>
      <point x="298" y="324" type="qcurve"/>
      <point x="308" y="329"/>
      <point x="353" y="350"/>
      <point x="358" y="351" type="qcurve"/>
      <point x="359" y="350"/>
      <point x="361" y="317"/>
      <point x="362" y="292" type="qcurve" smooth="yes"/>
      <point x="369" y="154" type="line" smooth="yes"/>
      <point x="371" y="107"/>
      <point x="371" y="71"/>
      <point x="368" y="70" type="qcurve"/>
      <point x="353" y="58"/>
      <point x="235" y="-11"/>
      <point x="205" y="-26" type="qcurve" smooth="yes"/>
      <point x="154" y="-50"/>
      <point x="69" y="-68"/>
      <point x="7" y="-68" type="qcurve" smooth="yes"/>
      <point x="-35" y="-68"/>
      <point x="-59" y="-72"/>
      <point x="-57" y="-80" type="qcurve"/>
      <point x="-58" y="-87"/>
      <point x="-29" y="-92"/>
      <point x="11" y="-92" type="qcurve" smooth="yes"/>
      <point x="98" y="-93"/>
      <point x="237" y="-46"/>
      <point x="336" y="18" type="qcurve" smooth="yes"/>
      <point x="350" y="26"/>
      <point x="371" y="37"/>
      <point x="372" y="37" type="qcurve"/>
      <point x="374" y="36" name="inserted"/>
      <point x="376" y="29"/>
      <point x="376" y="23" type="qcurve" smooth="yes"/>
      <point x="376" y="10"/>
      <point x="387" y="-44"/>
      <point x="391" y="-52" type="qcurve"/>
      <point x="397" y="-60" name="inserted"/>
      <point x="410" y="-63"/>
      <point x="417" y="-59" type="qcurve"/>
      <point x="422" y="-54"/>
      <point x="423" y="-47"/>
      <point x="419" y="-40" type="qcurve"/>
      <point x="415" y="-31" name="inserted"/>
      <point x="408" y="10"/>
      <point x="404" y="39" type="qcurve" smooth="yes"/>
      <point x="401" y="59" type="line"/>
      <point x="452" y="96" type="line" smooth="yes"/>
      <point x="595" y="204"/>
      <point x="756" y="389"/>
      <point x="738" y="426" type="qcurve"/>
      <point x="732" y="435"/>
      <point x="699" y="441"/>
      <point x="659" y="439" type="qcurve" smooth="yes"/>
      <point x="637" y="438"/>
      <point x="586" y="434"/>
      <point x="568" y="430" type="qcurve" smooth="yes"/>
      <point x="531" y="425"/>
      <point x="432" y="401"/>
      <point x="408" y="394" type="qcurve" smooth="yes"/>
      <point x="389" y="388" type="line"/>
      <point x="386" y="389"/>
      <point x="389" y="413"/>
      <point x="392" y="418" type="qcurve"/>
      <point x="406" y="432"/>
      <point x="530" y="578"/>
      <point x="561" y="615" type="qcurve" smooth="yes"/>
      <point x="582" y="642"/>
      <point x="610" y="690"/>
      <point x="612" y="705" type="qcurve"/>
      <point x="618" y="735"/>
      <point x="575" y="752"/>
      <point x="506" y="746" type="qcurve"/>
      <point x="506" y="746" name="inserted"/>
      <point x="506" y="746"/>
    </contour>
    <contour>
      <point x="582" y="713" type="qcurve"/>
      <point x="583" y="702"/>
      <point x="553" y="651"/>
      <point x="524" y="615" type="qcurve" smooth="yes"/>
      <point x="487" y="570" type="line"/>
      <point x="435" y="510" type="line"/>
      <point x="385" y="452" type="line"/>
      <point x="383" y="461" type="line" smooth="yes"/>
      <point x="377" y="491"/>
      <point x="363" y="668"/>
      <point x="366" y="688" type="qcurve" smooth="yes"/>
      <point x="367" y="693"/>
      <point x="379" y="699"/>
      <point x="397" y="703" type="qcurve" smooth="yes"/>
      <point x="448" y="714" name="inserted"/>
      <point x="529" y="724"/>
      <point x="560" y="723" type="qcurve" smooth="yes"/>
      <point x="581" y="723" type="line"/>
      <point x="582" y="713" type="line"/>
      <point x="582" y="713" name="inserted"/>
      <point x="582" y="713"/>
    </contour>
    <contour>
      <point x="710" y="408" type="qcurve"/>
      <point x="714" y="382"/>
      <point x="595" y="246"/>
      <point x="500" y="169" type="qcurve" smooth="yes"/>
      <point x="457" y="132"/>
      <point x="406" y="96"/>
      <point x="404" y="98" type="qcurve" smooth="yes" name="inserted"/>
      <point x="401" y="101"/>
      <point x="396" y="202"/>
      <point x="393" y="286" type="qcurve" smooth="yes"/>
      <point x="390" y="362" type="line"/>
      <point x="417" y="371" type="line" smooth="yes"/>
      <point x="486" y="391"/>
      <point x="630" y="415"/>
      <point x="683" y="413" type="qcurve" smooth="yes"/>
      <point x="699" y="413"/>
      <point x="710" y="411"/>
      <point x="710" y="408" type="qcurve"/>
      <point x="710" y="408" name="inserted"/>
      <point x="710" y="408"/>
    </contour>
  </outline>
</glyph>
<glyph name="glyph00029" format="1">
  <advance width="752"/>
  <unicode hex="0043"/>
  <outline>
    <contour>
      <point x="298" y="789" type="qcurve"/>
      <point x="262" y="784"/>
      <point x="208" y="754"/>
      <point x="184" y="726" type="qcurve" smooth="yes"/>
      <point x="135" y="673"/>
      <point x="81" y="513"/>
      <point x="70" y="393" type="qcurve" smooth="yes"/>
      <point x="66" y="345"/>
      <point x="70" y="208"/>
      <point x="75" y="180" type="qcurve" smooth="yes"/>
      <point x="80" y="159"/>
      <point x="103" y="111"/>
      <point x="117" y="93" type="qcurve" smooth="yes"/>
      <point x="133" y="73"/>
      <point x="188" y="31"/>
      <point x="212" y="21" type="qcurve" smooth="yes"/>
      <point x="243" y="8"/>
      <point x="296" y="-1"/>
      <point x="341" y="0" type="qcurve" smooth="yes"/>
      <point x="375" y="0"/>
      <point x="409" y="2"/>
      <point x="424" y="5" type="qcurve" smooth="yes"/>
      <point x="498" y="22"/>
      <point x="634" y="110"/>
      <point x="672" y="165" type="qcurve" smooth="yes"/>
      <point x="684" y="181"/>
      <point x="685" y="200"/>
      <point x="676" y="207" type="qcurve"/>
      <point x="670" y="212"/>
      <point x="663" y="214"/>
      <point x="658" y="214" type="qcurve"/>
      <point x="650" y="212" name="inserted"/>
      <point x="648" y="203"/>
      <point x="654" y="196" type="qcurve" smooth="yes"/>
      <point x="657" y="192"/>
      <point x="656" y="185"/>
      <point x="650" y="176" type="qcurve" smooth="yes"/>
      <point x="640" y="160"/>
      <point x="597" y="117"/>
      <point x="575" y="100" type="qcurve" smooth="yes"/>
      <point x="554" y="84"/>
      <point x="499" y="52"/>
      <point x="479" y="45" type="qcurve" smooth="yes"/>
      <point x="393" y="12"/>
      <point x="222" y="28"/>
      <point x="170" y="73" type="qcurve" smooth="yes"/>
      <point x="145" y="96"/>
      <point x="119" y="134"/>
      <point x="109" y="161" type="qcurve" smooth="yes"/>
      <point x="101" y="183"/>
      <point x="94" y="248"/>
      <point x="94" y="302" type="qcurve" smooth="yes"/>
      <point x="94" y="441"/>
      <point x="150" y="650"/>
      <point x="203" y="712" type="qcurve" smooth="yes"/>
      <point x="226" y="739"/>
      <point x="271" y="764"/>
      <point x="306" y="769" type="qcurve" smooth="yes"/>
      <point x="338" y="774"/>
      <point x="389" y="771"/>
      <point x="426" y="762" type="qcurve" smooth="yes"/>
      <point x="452" y="756" name="inserted"/>
      <point x="498" y="735"/>
      <point x="518" y="720" type="qcurve" smooth="yes"/>
      <point x="539" y="705"/>
      <point x="559" y="673"/>
      <point x="569" y="642" type="qcurve" smooth="yes"/>
      <point x="573" y="626"/>
      <point x="582" y="604"/>
      <point x="584" y="601" type="qcurve"/>
      <point x="589" y="595"/>
      <point x="602" y="595"/>
      <point x="605" y="600" type="qcurve"/>
      <point x="608" y="609"/>
      <point x="584" y="682"/>
      <point x="571" y="702" type="qcurve" smooth="yes" name="inserted"/>
      <point x="558" y="720"/>
      <point x="508" y="757"/>
      <point x="478" y="768" type="qcurve" smooth="yes"/>
      <point x="434" y="785"/>
      <point x="343" y="796"/>
      <point x="298" y="789" type="qcurve"/>
      <point x="298" y="789" name="inserted"/>
      <point x="298" y="789"/>
    </contour>
  </outline>
</glyph>
<glyph name="glyph00032" format="1">
  <advance width="616"/>
  <unicode hex="0046"/>
  <outline>
    <contour>
      <point x="591" y="736" type="qcurve"/>
      <point x="525" y="729"/>
      <point x="362" y="693"/>
      <point x="294" y="670" type="qcurve" smooth="yes"/>
      <point x="229" y="648"/>
      <point x="101" y="592"/>
      <point x="92" y="582" type="qcurve"/>
      <point x="88" y="576" name="inserted"/>
      <point x="94" y="570"/>
      <point x="104" y="570" type="qcurve"/>
      <point x="112" y="571"/>
      <point x="117" y="568"/>
      <point x="120" y="561" type="qcurve"/>
      <point x="127" y="540"/>
      <point x="148" y="355"/>
      <point x="149" y="310" type="qcurve" smooth="yes"/>
      <point x="149" y="295" type="line"/>
      <point x="131" y="285" type="line" smooth="yes"/>
      <point x="98" y="267"/>
      <point x="114" y="246"/>
      <point x="134" y="260" type="qcurve" smooth="yes"/>
      <point x="141" y="265" name="inserted"/>
      <point x="148" y="268"/>
      <point x="149" y="266" type="qcurve"/>
      <point x="150" y="264"/>
      <point x="153" y="230"/>
      <point x="154" y="207" type="qcurve" smooth="yes"/>
      <point x="157" y="145"/>
      <point x="173" y="24"/>
      <point x="181" y="9" type="qcurve"/>
      <point x="186" y="3" name="inserted"/>
      <point x="198" y="-1"/>
      <point x="205" y="3" type="qcurve"/>
      <point x="212" y="6"/>
      <point x="212" y="11"/>
      <point x="208" y="20" type="qcurve" smooth="yes"/>
      <point x="201" y="36"/>
      <point x="187" y="129"/>
      <point x="184" y="184" type="qcurve" smooth="yes"/>
      <point x="179" y="264" type="line"/>
      <point x="178" y="269"/>
      <point x="179" y="279"/>
      <point x="180" y="280" type="qcurve"/>
      <point x="188" y="287"/>
      <point x="257" y="306"/>
      <point x="290" y="311" type="qcurve" smooth="yes"/>
      <point x="315" y="313"/>
      <point x="332" y="319"/>
      <point x="331" y="324" type="qcurve"/>
      <point x="331" y="331" name="inserted"/>
      <point x="314" y="334"/>
      <point x="298" y="332" type="qcurve" smooth="yes"/>
      <point x="266" y="328" type="line" smooth="yes"/>
      <point x="260" y="327"/>
      <point x="232" y="321"/>
      <point x="216" y="316" type="qcurve" smooth="yes"/>
      <point x="190" y="309" type="line"/>
      <point x="180" y="307"/>
      <point x="179" y="308"/>
      <point x="177" y="328" type="qcurve" smooth="yes"/>
      <point x="172" y="376" type="line" smooth="yes"/>
      <point x="165" y="458"/>
      <point x="151" y="559"/>
      <point x="145" y="571" type="qcurve"/>
      <point x="137" y="580"/>
      <point x="151" y="591"/>
      <point x="200" y="611" type="qcurve" smooth="yes"/>
      <point x="265" y="639"/>
      <point x="411" y="684"/>
      <point x="473" y="696" type="qcurve" smooth="yes"/>
      <point x="518" y="704"/>
      <point x="596" y="716"/>
      <point x="620" y="717" type="qcurve" smooth="yes"/>
      <point x="654" y="720" type="line"/>
      <point x="660" y="722"/>
      <point x="665" y="731"/>
      <point x="661" y="735" type="qcurve" smooth="yes" name="inserted"/>
      <point x="656" y="738"/>
      <point x="616" y="739"/>
      <point x="591" y="736" type="qcurve"/>
      <point x="591" y="736" name="inserted"/>
      <point x="591" y="736"/>
    </contour>
  </outline>
</glyph>
<glyph name="glyph00042" format="1">
  <advance width="616"/>
  <unicode hex="0050"/>
  <outline>
    <contour>
      <point x="393" y="796" type="qcurve"/>
      <point x="346" y="794"/>
      <point x="249" y="783"/>
      <point x="210" y="774" type="qcurve" smooth="yes"/>
      <point x="191" y="769"/>
      <point x="182" y="777"/>
      <point x="176" y="776" type="qcurve" smooth="yes" name="inserted"/>
      <point x="173" y="775" name="inserted"/>
      <point x="168" y="772"/>
      <point x="166" y="769" type="qcurve"/>
      <point x="164" y="765" name="inserted"/>
      <point x="150" y="757"/>
      <point x="137" y="753" type="qcurve" smooth="yes"/>
      <point x="92" y="738"/>
      <point x="34" y="702"/>
      <point x="35" y="689" type="qcurve" smooth="yes"/>
      <point x="36" y="685" name="inserted"/>
      <point x="41" y="681"/>
      <point x="45" y="681" type="qcurve"/>
      <point x="49" y="681"/>
      <point x="62" y="687"/>
      <point x="73" y="696" type="qcurve" smooth="yes" name="inserted"/>
      <point x="83" y="705"/>
      <point x="107" y="717"/>
      <point x="123" y="723" type="qcurve" smooth="yes"/>
      <point x="136" y="728"/>
      <point x="156" y="735"/>
      <point x="158" y="735" type="qcurve"/>
      <point x="163" y="736" name="inserted"/>
      <point x="168" y="682"/>
      <point x="168" y="627" type="qcurve" smooth="yes"/>
      <point x="168" y="574" type="line"/>
      <point x="143" y="567" type="line"/>
      <point x="124" y="564"/>
      <point x="110" y="555"/>
      <point x="112" y="550" type="qcurve" smooth="yes" name="inserted"/>
      <point x="113" y="544"/>
      <point x="134" y="543"/>
      <point x="150" y="546" type="qcurve" smooth="yes"/>
      <point x="157" y="548"/>
      <point x="168" y="550"/>
      <point x="169" y="549" type="qcurve"/>
      <point x="170" y="548" name="inserted"/>
      <point x="171" y="521"/>
      <point x="171" y="495" type="qcurve" smooth="yes"/>
      <point x="171" y="366" type="line" smooth="yes"/>
      <point x="171" y="228"/>
      <point x="177" y="47"/>
      <point x="182" y="20" type="qcurve" smooth="yes" name="inserted"/>
      <point x="185" y="6" name="inserted"/>
      <point x="196" y="-6"/>
      <point x="204" y="-3" type="qcurve"/>
      <point x="210" y="-1"/>
      <point x="212" y="10"/>
      <point x="210" y="23" type="qcurve" smooth="yes"/>
      <point x="205" y="46"/>
      <point x="199" y="228"/>
      <point x="199" y="370" type="qcurve" smooth="yes"/>
      <point x="199" y="559" type="line"/>
      <point x="221" y="568" type="line" smooth="yes"/>
      <point x="233" y="574"/>
      <point x="305" y="611"/>
      <point x="393" y="660" type="qcurve" smooth="yes"/>
      <point x="446" y="688"/>
      <point x="499" y="727"/>
      <point x="508" y="743" type="qcurve" smooth="yes" name="inserted"/>
      <point x="517" y="758"/>
      <point x="504" y="784"/>
      <point x="484" y="791" type="qcurve"/>
      <point x="473" y="794"/>
      <point x="423" y="797"/>
      <point x="393" y="796" type="qcurve"/>
      <point x="393" y="796" name="inserted"/>
      <point x="393" y="796"/>
    </contour>
    <contour>
      <point x="473" y="772" type="qcurve"/>
      <point x="481" y="769" name="inserted"/>
      <point x="486" y="758"/>
      <point x="482" y="751" type="qcurve"/>
      <point x="475" y="741"/>
      <point x="419" y="701"/>
      <point x="381" y="681" type="qcurve" smooth="yes"/>
      <point x="287" y="628" type="line" smooth="yes"/>
      <point x="249" y="608"/>
      <point x="201" y="585"/>
      <point x="199" y="587" type="qcurve" smooth="yes" name="inserted"/>
      <point x="198" y="588" name="inserted"/>
      <point x="197" y="600"/>
      <point x="196" y="611" type="qcurve" smooth="yes"/>
      <point x="194" y="747" type="line"/>
      <point x="229" y="755" type="line" smooth="yes"/>
      <point x="244" y="758"/>
      <point x="283" y="765"/>
      <point x="297" y="767" type="qcurve"/>
      <point x="346" y="772"/>
      <point x="456" y="776"/>
      <point x="473" y="772" type="qcurve"/>
      <point x="473" y="772" name="inserted"/>
      <point x="473" y="772"/>
    </contour>
  </outline>
</glyph>
<glyph name="glyph00044" format="1">
  <advance width="412"/>
  <unicode hex="0052"/>
  <outline>
    <contour>
      <point x="-34" y="803" type="qcurve"/>
      <point x="-38" y="799"/>
      <point x="-39" y="784"/>
      <point x="-48" y="781" type="qcurve"/>
      <point x="-60" y="776"/>
      <point x="-80" y="750"/>
      <point x="-80" y="739" type="qcurve" smooth="yes" name="inserted"/>
      <point x="-80" y="733" name="inserted"/>
      <point x="-75" y="728"/>
      <point x="-70" y="728" type="qcurve"/>
      <point x="-66" y="727"/>
      <point x="-57" y="733"/>
      <point x="-51" y="740" type="qcurve" smooth="yes"/>
      <point x="-40" y="753" type="line"/>
      <point x="-38" y="379" type="line" smooth="yes"/>
      <point x="-37" y="141"/>
      <point x="-34" y="-3"/>
      <point x="-31" y="3" type="qcurve"/>
      <point x="-25" y="-1"/>
      <point x="-19" y="0"/>
      <point x="-14" y="4" type="qcurve"/>
      <point x="-10" y="3"/>
      <point x="-7" y="74"/>
      <point x="-7" y="192" type="qcurve" smooth="yes"/>
      <point x="-8" y="286"/>
      <point x="-6" y="375"/>
      <point x="-4" y="375" type="qcurve" smooth="yes" name="inserted"/>
      <point x="-3" y="375" name="inserted"/>
      <point x="1" y="375"/>
      <point x="4" y="374" type="qcurve"/>
      <point x="16" y="369" type="line"/>
      <point x="19" y="368" name="inserted"/>
      <point x="34" y="363"/>
      <point x="46" y="359" type="qcurve" smooth="yes"/>
      <point x="98" y="342" type="line" smooth="yes"/>
      <point x="160" y="323"/>
      <point x="229" y="297"/>
      <point x="265" y="281" type="qcurve" smooth="yes"/>
      <point x="299" y="266"/>
      <point x="360" y="231"/>
      <point x="383" y="213" type="qcurve" smooth="yes"/>
      <point x="397" y="202"/>
      <point x="410" y="198"/>
      <point x="416" y="203" type="qcurve"/>
      <point x="426" y="210"/>
      <point x="405" y="232"/>
      <point x="369" y="255" type="qcurve" smooth="yes"/>
      <point x="320" y="286"/>
      <point x="197" y="338"/>
      <point x="95" y="370" type="qcurve" smooth="yes"/>
      <point x="33" y="389"/>
      <point x="-5" y="406"/>
      <point x="-4" y="414" type="qcurve" smooth="yes" name="inserted"/>
      <point x="-3" y="421"/>
      <point x="15" y="449"/>
      <point x="26" y="460" type="qcurve" smooth="yes"/>
      <point x="68" y="500"/>
      <point x="138" y="586"/>
      <point x="151" y="616" type="qcurve" smooth="yes"/>
      <point x="165" y="649"/>
      <point x="169" y="729"/>
      <point x="157" y="752" type="qcurve"/>
      <point x="151" y="762"/>
      <point x="123" y="781"/>
      <point x="107" y="785" type="qcurve" smooth="yes"/>
      <point x="100" y="787"/>
      <point x="63" y="789"/>
      <point x="43" y="789" type="qcurve" smooth="yes"/>
      <point x="10" y="789"/>
      <point x="-7" y="792"/>
      <point x="-9" y="797" type="qcurve"/>
      <point x="-13" y="803"/>
      <point x="-28" y="806"/>
      <point x="-34" y="803" type="qcurve"/>
      <point x="-34" y="803" name="inserted"/>
      <point x="-34" y="803"/>
    </contour>
    <contour>
      <point x="105" y="759" type="qcurve"/>
      <point x="122" y="754"/>
      <point x="136" y="724"/>
      <point x="136" y="696" type="qcurve" smooth="yes"/>
      <point x="136" y="658"/>
      <point x="107" y="593"/>
      <point x="72" y="550" type="qcurve" smooth="yes"/>
      <point x="54" y="529"/>
      <point x="-1" y="472"/>
      <point x="-6" y="469" type="qcurve"/>
      <point x="-7" y="470" name="inserted"/>
      <point x="-7" y="492"/>
      <point x="-7" y="512" type="qcurve" smooth="yes"/>
      <point x="-7" y="763" type="line"/>
      <point x="1" y="765" type="line"/>
      <point x="18" y="766"/>
      <point x="91" y="763"/>
      <point x="105" y="759" type="qcurve"/>
      <point x="105" y="759" name="inserted"/>
      <point x="105" y="759"/>
    </contour>
  </outline>
</glyph>
<glyph name="glyph00045" format="1">
  <advance width="616"/>
  <unicode hex="0053"/>
  <outline>
    <contour>
      <point x="327" y="802" type="qcurve"/>
      <point x="318" y="802"/>
      <point x="297" y="797"/>
      <point x="290" y="795" type="qcurve"/>
      <point x="271" y="787"/>
      <point x="238" y="752"/>
      <point x="228" y="728" type="qcurve" smooth="yes"/>
      <point x="219" y="706"/>
      <point x="213" y="670"/>
      <point x="211" y="634" type="qcurve" smooth="yes"/>
      <point x="210" y="592"/>
      <point x="217" y="540"/>
      <point x="229" y="517" type="qcurve"/>
      <point x="238" y="496"/>
      <point x="271" y="450"/>
      <point x="310" y="402" type="qcurve" smooth="yes"/>
      <point x="371" y="328" type="line" smooth="yes"/>
      <point x="402" y="290" name="inserted"/>
      <point x="439" y="211"/>
      <point x="445" y="169" type="qcurve" smooth="yes"/>
      <point x="451" y="130"/>
      <point x="425" y="76"/>
      <point x="390" y="54" type="qcurve" smooth="yes"/>
      <point x="338" y="23"/>
      <point x="222" y="15"/>
      <point x="192" y="39" type="qcurve"/>
      <point x="182" y="49"/>
      <point x="169" y="80"/>
      <point x="163" y="109" type="qcurve" smooth="yes"/>
      <point x="158" y="136"/>
      <point x="147" y="151"/>
      <point x="138" y="143" type="qcurve"/>
      <point x="133" y="139"/>
      <point x="132" y="124"/>
      <point x="137" y="98" type="qcurve" smooth="yes"/>
      <point x="144" y="61"/>
      <point x="175" y="16"/>
      <point x="200" y="7" type="qcurve"/>
      <point x="277" y="-16"/>
      <point x="441" y="43"/>
      <point x="468" y="103" type="qcurve"/>
      <point x="477" y="128"/>
      <point x="468" y="211"/>
      <point x="452" y="249" type="qcurve" smooth="yes"/>
      <point x="443" y="273"/>
      <point x="383" y="355"/>
      <point x="318" y="433" type="qcurve" smooth="yes"/>
      <point x="291" y="466"/>
      <point x="253" y="524"/>
      <point x="246" y="544" type="qcurve" smooth="yes" name="inserted"/>
      <point x="239" y="565"/>
      <point x="237" y="653"/>
      <point x="243" y="683" type="qcurve" smooth="yes"/>
      <point x="250" y="720" name="inserted"/>
      <point x="282" y="767"/>
      <point x="306" y="776" type="qcurve"/>
      <point x="339" y="787"/>
      <point x="475" y="776"/>
      <point x="534" y="757" type="qcurve" smooth="yes"/>
      <point x="572" y="744" name="inserted"/>
      <point x="630" y="709"/>
      <point x="650" y="687" type="qcurve" smooth="yes"/>
      <point x="672" y="664"/>
      <point x="695" y="675"/>
      <point x="671" y="701" type="qcurve" smooth="yes"/>
      <point x="646" y="728" name="inserted"/>
      <point x="578" y="767"/>
      <point x="534" y="781" type="qcurve" smooth="yes"/>
      <point x="510" y="789"/>
      <point x="459" y="799"/>
      <point x="422" y="802" type="qcurve" smooth="yes"/>
      <point x="391" y="805"/>
      <point x="351" y="806"/>
      <point x="327" y="802" type="qcurve"/>
      <point x="327" y="802" name="inserted"/>
      <point x="327" y="802"/>
    </contour>
  </outline>
</glyph>
<glyph name="glyph00049" format="1">
  <advance width="616"/>
  <unicode hex="0057"/>
  <outline>
    <contour>
      <point x="459" y="737" type="qcurve"/>
      <point x="458" y="735"/>
      <point x="453" y="719"/>
      <point x="451" y="708" type="qcurve" smooth="yes" name="inserted"/>
      <point x="450" y="702" name="inserted"/>
      <point x="447" y="686"/>
      <point x="444" y="675" type="qcurve" smooth="yes"/>
      <point x="433" y="631" type="line" smooth="yes"/>
      <point x="410" y="543"/>
      <point x="391" y="435"/>
      <point x="386" y="363" type="qcurve" smooth="yes"/>
      <point x="383" y="313"/>
      <point x="377" y="208"/>
      <point x="376" y="163" type="qcurve" smooth="yes"/>
      <point x="372" y="92" type="line"/>
      <point x="370" y="74" type="line"/>
      <point x="365" y="85" type="line"/>
      <point x="364" y="88" name="inserted"/>
      <point x="360" y="102"/>
      <point x="356" y="113" type="qcurve" smooth="yes"/>
      <point x="341" y="164" type="line" smooth="yes"/>
      <point x="324" y="220"/>
      <point x="292" y="318"/>
      <point x="288" y="330" type="qcurve"/>
      <point x="285" y="336" name="inserted"/>
      <point x="274" y="341"/>
      <point x="266" y="339" type="qcurve"/>
      <point x="260" y="339"/>
      <point x="249" y="311"/>
      <point x="233" y="254" type="qcurve" smooth="yes" name="inserted"/>
      <point x="224" y="225" name="inserted"/>
      <point x="216" y="152"/>
      <point x="216" y="108" type="qcurve" smooth="yes"/>
      <point x="216" y="84" name="inserted"/>
      <point x="215" y="60"/>
      <point x="213" y="61" type="qcurve"/>
      <point x="207" y="71"/>
      <point x="154" y="190"/>
      <point x="140" y="222" type="qcurve" smooth="yes"/>
      <point x="66" y="416" type="line" smooth="yes"/>
      <point x="49" y="457"/>
      <point x="37" y="497"/>
      <point x="40" y="501" type="qcurve" smooth="yes" name="inserted"/>
      <point x="43" y="505"/>
      <point x="40" y="520"/>
      <point x="35" y="525" type="qcurve"/>
      <point x="28" y="533"/>
      <point x="8" y="525"/>
      <point x="8" y="516" type="qcurve" smooth="yes"/>
      <point x="8" y="507"/>
      <point x="31" y="440"/>
      <point x="46" y="403" type="qcurve" smooth="yes"/>
      <point x="65" y="355" type="line"/>
      <point x="104" y="253" type="line"/>
      <point x="119" y="212" type="line" smooth="yes"/>
      <point x="138" y="165"/>
      <point x="208" y="14"/>
      <point x="216" y="4" type="qcurve"/>
      <point x="220" y="0"/>
      <point x="234" y="0"/>
      <point x="238" y="4" type="qcurve"/>
      <point x="239" y="6"/>
      <point x="241" y="48"/>
      <point x="241" y="84" type="qcurve" smooth="yes"/>
      <point x="241" y="156"/>
      <point x="252" y="243"/>
      <point x="268" y="289" type="qcurve" smooth="yes"/>
      <point x="272" y="302" type="line"/>
      <point x="281" y="279" type="line"/>
      <point x="305" y="199" type="line"/>
      <point x="327" y="128" type="line" smooth="yes"/>
      <point x="342" y="76"/>
      <point x="362" y="37"/>
      <point x="374" y="39" type="qcurve"/>
      <point x="381" y="40"/>
      <point x="392" y="48"/>
      <point x="395" y="83" type="qcurve" smooth="yes" name="inserted"/>
      <point x="397" y="100" name="inserted"/>
      <point x="400" y="159"/>
      <point x="401" y="199" type="qcurve" smooth="yes"/>
      <point x="404" y="268"/>
      <point x="414" y="401"/>
      <point x="419" y="446" type="qcurve" smooth="yes"/>
      <point x="422" y="477"/>
      <point x="438" y="556"/>
      <point x="455" y="623" type="qcurve" smooth="yes"/>
      <point x="471" y="686"/>
      <point x="480" y="731"/>
      <point x="477" y="735" type="qcurve" smooth="yes" name="inserted"/>
      <point x="474" y="738"/>
      <point x="463" y="740"/>
      <point x="459" y="737" type="qcurve"/>
      <point x="459" y="737" name="inserted"/>
      <point x="459" y="737"/>
    </contour>
  </outline>
</glyph>
<glyph name="glyph00057" format="1">
  <advance width="1024"/>
  <unicode hex="005F"/>
  <outline>
    <contour>
      <point x="797" y="59" type="qcurve"/>
      <point x="784" y="56"/>
      <point x="726" y="51"/>
      <point x="696" y="49" type="qcurve" smooth="yes"/>
      <point x="611" y="45"/>
      <point x="210" y="43"/>
      <point x="176" y="46" type="qcurve"/>
      <point x="165" y="51"/>
      <point x="166" y="35"/>
      <point x="176" y="28" type="qcurve" smooth="yes" name="inserted"/>
      <point x="180" y="24" name="inserted"/>
      <point x="192" y="18"/>
      <point x="199" y="17" type="qcurve"/>
      <point x="239" y="11"/>
      <point x="610" y="8"/>
      <point x="694" y="11" type="qcurve" smooth="yes"/>
      <point x="751" y="16"/>
      <point x="876" y="35"/>
      <point x="886" y="41" type="qcurve"/>
      <point x="889" y="45"/>
      <point x="879" y="57"/>
      <point x="869" y="61" type="qcurve" smooth="yes" name="inserted"/>
      <point x="859" y="65"/>
      <point x="829" y="63"/>
      <point x="797" y="59" type="qcurve"/>
      <point x="797" y="59" name="inserted"/>
      <point x="797" y="59"/>
    </contour>
  </outline>
</glyph>
<glyph name="glyph00072" format="1">
  <advance width="446"/>
  <unicode hex="006E"/>
  <outline>
    <contour>
      <point x="127" y="471" type="qcurve"/>
      <point x="110" y="456"/>
      <point x="101" y="377"/>
      <point x="97" y="250" type="qcurve" smooth="yes"/>
      <point x="95" y="180"/>
      <point x="95" y="77"/>
      <point x="99" y="71" type="qcurve"/>
      <point x="102" y="59"/>
      <point x="126" y="53"/>
      <point x="135" y="60" type="qcurve" smooth="yes"/>
      <point x="141" y="65"/>
      <point x="146" y="97"/>
      <point x="150" y="134" type="qcurve" smooth="yes"/>
      <point x="150" y="164"/>
      <point x="157" y="216"/>
      <point x="159" y="227" type="qcurve" smooth="yes"/>
      <point x="167" y="264"/>
      <point x="221" y="400"/>
      <point x="228" y="409" type="qcurve"/>
      <point x="233" y="404"/>
      <point x="256" y="317"/>
      <point x="262" y="270" type="qcurve" smooth="yes"/>
      <point x="275" y="173"/>
      <point x="308" y="51"/>
      <point x="323" y="36" type="qcurve" smooth="yes"/>
      <point x="332" y="22"/>
      <point x="353" y="15"/>
      <point x="361" y="17" type="qcurve" smooth="yes"/>
      <point x="371" y="22" name="inserted"/>
      <point x="371" y="43"/>
      <point x="361" y="61" type="qcurve" smooth="yes"/>
      <point x="346" y="82"/>
      <point x="320" y="189"/>
      <point x="313" y="247" type="qcurve" smooth="yes"/>
      <point x="307" y="291"/>
      <point x="286" y="386"/>
      <point x="273" y="426" type="qcurve" smooth="yes"/>
      <point x="266" y="447"/>
      <point x="255" y="465"/>
      <point x="244" y="470" type="qcurve" smooth="yes" name="inserted"/>
      <point x="236" y="474"/>
      <point x="222" y="474"/>
      <point x="215" y="472" type="qcurve"/>
      <point x="204" y="467"/>
      <point x="189" y="441"/>
      <point x="170" y="398" type="qcurve" smooth="yes"/>
      <point x="153" y="349"/>
      <point x="142" y="337"/>
      <point x="145" y="370" type="qcurve" smooth="yes"/>
      <point x="146" y="386"/>
      <point x="153" y="417"/>
      <point x="155" y="427" type="qcurve" smooth="yes"/>
      <point x="160" y="450" name="inserted"/>
      <point x="157" y="474"/>
      <point x="145" y="476" type="qcurve" smooth="yes"/>
      <point x="140" y="476"/>
      <point x="129" y="474"/>
      <point x="127" y="471" type="qcurve"/>
      <point x="127" y="471" name="inserted"/>
      <point x="127" y="471"/>
    </contour>
  </outline>
</glyph>
<glyph name="glyph00075" format="1">
  <advance width="582"/>
  <unicode hex="0071"/>
  <outline>
    <contour>
      <point x="199" y="497" type="qcurve"/>
      <point x="186" y="491"/>
      <point x="170" y="478"/>
      <point x="162" y="466" type="qcurve" smooth="yes"/>
      <point x="151" y="449" name="inserted"/>
      <point x="138" y="395"/>
      <point x="138" y="357" type="qcurve"/>
      <point x="138" y="325"/>
      <point x="154" y="283"/>
      <point x="171" y="272" type="qcurve" smooth="yes"/>
      <point x="179" y="266"/>
      <point x="193" y="264"/>
      <point x="207" y="264" type="qcurve" smooth="yes" name="inserted"/>
      <point x="221" y="264"/>
      <point x="237" y="266"/>
      <point x="243" y="270" type="qcurve"/>
      <point x="255" y="277"/>
      <point x="280" y="304"/>
      <point x="286" y="316" type="qcurve" smooth="yes"/>
      <point x="288" y="323" name="inserted"/>
      <point x="292" y="325"/>
      <point x="292" y="321" type="qcurve"/>
      <point x="293" y="317"/>
      <point x="292" y="263"/>
      <point x="289" y="224" type="qcurve" smooth="yes"/>
      <point x="287" y="130"/>
      <point x="287" y="-140"/>
      <point x="289" y="-176" type="qcurve" smooth="yes"/>
      <point x="293" y="-209"/>
      <point x="313" y="-239"/>
      <point x="333" y="-241" type="qcurve" smooth="yes"/>
      <point x="341" y="-242"/>
      <point x="350" y="-240"/>
      <point x="357" y="-233" type="qcurve"/>
      <point x="379" y="-216"/>
      <point x="399" y="-117"/>
      <point x="399" y="-28" type="qcurve" smooth="yes"/>
      <point x="400" y="20"/>
      <point x="395" y="62"/>
      <point x="387" y="80" type="qcurve" smooth="yes"/>
      <point x="374" y="105"/>
      <point x="339" y="130"/>
      <point x="326" y="122" type="qcurve"/>
      <point x="321" y="116"/>
      <point x="326" y="104"/>
      <point x="337" y="101" type="qcurve" smooth="yes"/>
      <point x="354" y="95"/>
      <point x="375" y="52"/>
      <point x="379" y="20" type="qcurve" smooth="yes"/>
      <point x="381" y="-6"/>
      <point x="378" y="-91"/>
      <point x="374" y="-123" type="qcurve" smooth="yes" name="inserted"/>
      <point x="371" y="-157"/>
      <point x="359" y="-196"/>
      <point x="352" y="-207" type="qcurve" smooth="yes"/>
      <point x="343" y="-217" name="inserted"/>
      <point x="329" y="-219"/>
      <point x="323" y="-211" type="qcurve"/>
      <point x="313" y="-207"/>
      <point x="309" y="-134"/>
      <point x="309" y="17" type="qcurve" smooth="yes"/>
      <point x="310" y="182"/>
      <point x="315" y="378"/>
      <point x="322" y="411" type="qcurve" smooth="yes"/>
      <point x="325" y="432" type="line" smooth="yes"/>
      <point x="326" y="438" name="inserted"/>
      <point x="326" y="444"/>
      <point x="326" y="446" type="qcurve" smooth="yes"/>
      <point x="326" y="448" name="inserted"/>
      <point x="327" y="451"/>
      <point x="328" y="451" type="qcurve" smooth="yes"/>
      <point x="331" y="451"/>
      <point x="349" y="436"/>
      <point x="355" y="429" type="qcurve"/>
      <point x="365" y="414"/>
      <point x="374" y="382"/>
      <point x="378" y="353" type="qcurve" smooth="yes" name="inserted"/>
      <point x="380" y="325"/>
      <point x="386" y="306"/>
      <point x="393" y="307" type="qcurve"/>
      <point x="399" y="306"/>
      <point x="401" y="327"/>
      <point x="398" y="358" type="qcurve" smooth="yes"/>
      <point x="396" y="379"/>
      <point x="392" y="405"/>
      <point x="387" y="414" type="qcurve" smooth="yes"/>
      <point x="375" y="442"/>
      <point x="329" y="485"/>
      <point x="306" y="492" type="qcurve" smooth="yes"/>
      <point x="271" y="500"/>
      <point x="214" y="503"/>
      <point x="199" y="497" type="qcurve"/>
      <point x="199" y="497" name="inserted"/>
      <point x="199" y="497"/>
    </contour>
    <contour>
      <point x="289" y="471" type="qcurve"/>
      <point x="295" y="470"/>
      <point x="305" y="466"/>
      <point x="305" y="465" type="qcurve" smooth="yes" name="inserted"/>
      <point x="305" y="464"/>
      <point x="302" y="445"/>
      <point x="299" y="430" type="qcurve" smooth="yes"/>
      <point x="294" y="388"/>
      <point x="268" y="325"/>
      <point x="251" y="306" type="qcurve"/>
      <point x="224" y="281"/>
      <point x="170" y="292"/>
      <point x="161" y="326" type="qcurve"/>
      <point x="158" y="341"/>
      <point x="161" y="403"/>
      <point x="166" y="421" type="qcurve"/>
      <point x="171" y="442" name="inserted"/>
      <point x="193" y="470"/>
      <point x="209" y="475" type="qcurve" smooth="yes"/>
      <point x="219" y="478"/>
      <point x="274" y="475"/>
      <point x="289" y="471" type="qcurve"/>
      <point x="289" y="471" name="inserted"/>
      <point x="289" y="471"/>
    </contour>
  </outline>
</glyph>
<glyph name="glyph00080" format="1">
  <advance width="412"/>
  <unicode hex="0076"/>
  <outline>
    <contour>
      <point x="58" y="489" type="qcurve"/>
      <point x="52" y="483"/>
      <point x="58" y="458"/>
      <point x="64" y="443" type="qcurve" smooth="yes"/>
      <point x="82" y="410"/>
      <point x="154" y="183"/>
      <point x="182" y="72" type="qcurve" smooth="yes"/>
      <point x="187" y="53"/>
      <point x="202" y="19"/>
      <point x="205" y="12" type="qcurve"/>
      <point x="220" y="-6"/>
      <point x="250" y="4"/>
      <point x="264" y="30" type="qcurve"/>
      <point x="266" y="36"/>
      <point x="292" y="144"/>
      <point x="324" y="296" type="qcurve" smooth="yes"/>
      <point x="330" y="331"/>
      <point x="346" y="385"/>
      <point x="349" y="395" type="qcurve" smooth="yes"/>
      <point x="368" y="436"/>
      <point x="367" y="486"/>
      <point x="349" y="486" type="qcurve"/>
      <point x="341" y="489"/>
      <point x="330" y="471"/>
      <point x="317" y="438" type="qcurve" smooth="yes"/>
      <point x="304" y="400"/>
      <point x="279" y="311"/>
      <point x="266" y="225" type="qcurve" smooth="yes"/>
      <point x="244" y="128"/>
      <point x="230" y="72"/>
      <point x="225" y="84" type="qcurve"/>
      <point x="224" y="87"/>
      <point x="216" y="115"/>
      <point x="212" y="132" type="qcurve" smooth="yes"/>
      <point x="198" y="199"/>
      <point x="113" y="443"/>
      <point x="96" y="475" type="qcurve"/>
      <point x="87" y="489"/>
      <point x="64" y="496"/>
      <point x="58" y="489" type="qcurve"/>
      <point x="58" y="489" name="inserted"/>
      <point x="58" y="489"/>
    </contour>
  </outline>
</glyph>
<glyph name="glyph00081" format="1">
  <advance width="514"/>
  <unicode hex="0077"/>
  <outline>
    <contour>
      <point x="97" y="531" type="qcurve"/>
      <point x="91" y="523"/>
      <point x="92" y="451"/>
      <point x="98" y="408" type="qcurve" smooth="yes"/>
      <point x="106" y="348" type="line" smooth="yes"/>
      <point x="109" y="329" name="inserted"/>
      <point x="116" y="290"/>
      <point x="117" y="271" type="qcurve" smooth="yes"/>
      <point x="136" y="142"/>
      <point x="156" y="20"/>
      <point x="163" y="13" type="qcurve" smooth="yes"/>
      <point x="174" y="-1"/>
      <point x="202" y="6"/>
      <point x="210" y="24" type="qcurve" smooth="yes"/>
      <point x="226" y="52"/>
      <point x="261" y="185"/>
      <point x="281" y="281" type="qcurve" smooth="yes"/>
      <point x="283" y="294"/>
      <point x="289" y="306"/>
      <point x="292" y="305" type="qcurve"/>
      <point x="298" y="296"/>
      <point x="337" y="164"/>
      <point x="355" y="97" type="qcurve" smooth="yes"/>
      <point x="366" y="48"/>
      <point x="380" y="18"/>
      <point x="390" y="14" type="qcurve" smooth="yes"/>
      <point x="402" y="9"/>
      <point x="423" y="24"/>
      <point x="428" y="43" type="qcurve"/>
      <point x="432" y="70"/>
      <point x="441" y="340"/>
      <point x="444" y="448" type="qcurve" smooth="yes"/>
      <point x="444" y="474"/>
      <point x="432" y="494"/>
      <point x="420" y="485" type="qcurve"/>
      <point x="411" y="478"/>
      <point x="399" y="350"/>
      <point x="398" y="248" type="qcurve" smooth="yes"/>
      <point x="397" y="185"/>
      <point x="390" y="104"/>
      <point x="388" y="125" type="qcurve"/>
      <point x="384" y="153"/>
      <point x="331" y="321"/>
      <point x="319" y="344" type="qcurve"/>
      <point x="309" y="358"/>
      <point x="299" y="366"/>
      <point x="287" y="363" type="qcurve"/>
      <point x="269" y="363"/>
      <point x="247" y="319"/>
      <point x="237" y="265" type="qcurve" smooth="yes"/>
      <point x="223" y="193"/>
      <point x="185" y="63"/>
      <point x="184" y="78" type="qcurve"/>
      <point x="184" y="81" name="inserted"/>
      <point x="180" y="110"/>
      <point x="177" y="139" type="qcurve" smooth="yes"/>
      <point x="156" y="276" type="line" smooth="yes"/>
      <point x="144" y="372"/>
      <point x="133" y="469"/>
      <point x="134" y="473" type="qcurve"/>
      <point x="140" y="481"/>
      <point x="138" y="513"/>
      <point x="131" y="526" type="qcurve"/>
      <point x="126" y="537"/>
      <point x="104" y="539"/>
      <point x="97" y="531" type="qcurve"/>
      <point x="97" y="531" name="inserted"/>
      <point x="97" y="531"/>
    </contour>
  </outline>
</glyph>
<glyph name="glyph00083" format="1">
  <advance width="481.0"/>
  <unicode hex="0079"/>
  <outline>
    <contour>
      <point x="157" y="484" type="qcurve"/>
      <point x="140" y="447"/>
      <point x="175" y="189"/>
      <point x="204" y="146" type="qcurve"/>
      <point x="211" y="140"/>
      <point x="238" y="135"/>
      <point x="250" y="140" type="qcurve" smooth="yes" name="inserted"/>
      <point x="260" y="144"/>
      <point x="286" y="196"/>
      <point x="298" y="252" type="qcurve" smooth="yes"/>
      <point x="305" y="283"/>
      <point x="317" y="320"/>
      <point x="317" y="320" type="qcurve"/>
      <point x="324" y="316"/>
      <point x="330" y="132"/>
      <point x="330" y="4" type="qcurve" smooth="yes"/>
      <point x="327" y="-107"/>
      <point x="319" y="-185"/>
      <point x="314" y="-206" type="qcurve"/>
      <point x="302" y="-246"/>
      <point x="286" y="-269"/>
      <point x="267" y="-276" type="qcurve"/>
      <point x="238" y="-292"/>
      <point x="250" y="-322"/>
      <point x="283" y="-317" type="qcurve"/>
      <point x="312" y="-308"/>
      <point x="348" y="-263"/>
      <point x="362" y="-212" type="qcurve"/>
      <point x="368" y="-187"/>
      <point x="374" y="-96"/>
      <point x="374" y="60" type="qcurve" smooth="yes"/>
      <point x="374" y="278"/>
      <point x="356" y="439"/>
      <point x="332" y="440" type="qcurve"/>
      <point x="309" y="445"/>
      <point x="286" y="395"/>
      <point x="265" y="311" type="qcurve" smooth="yes"/>
      <point x="255" y="270"/>
      <point x="238" y="208"/>
      <point x="236" y="204" type="qcurve"/>
      <point x="225" y="196"/>
      <point x="199" y="340"/>
      <point x="195" y="416" type="qcurve" smooth="yes"/>
      <point x="195" y="444"/>
      <point x="194" y="484"/>
      <point x="192" y="488" type="qcurve"/>
      <point x="187" y="494"/>
      <point x="166" y="493"/>
      <point x="157" y="484" type="qcurve"/>
      <point x="157" y="484" name="inserted"/>
      <point x="157" y="484"/>
    </contour>
  </outline>
</glyph>
<glyph name="glyph00084" format="1">
  <advance width="547.0"/>
  <unicode hex="007A"/>
  <outline>
    <contour>
      <point x="290" y="492" type="qcurve"/>
      <point x="251" y="481"/>
      <point x="154" y="450"/>
      <point x="144" y="442" type="qcurve"/>
      <point x="137" y="437" name="inserted"/>
      <point x="132" y="424"/>
      <point x="133" y="418" type="qcurve" smooth="yes"/>
      <point x="135" y="409"/>
      <point x="142" y="404"/>
      <point x="154" y="405" type="qcurve"/>
      <point x="163" y="405"/>
      <point x="206" y="414"/>
      <point x="232" y="422" type="qcurve" smooth="yes"/>
      <point x="280" y="437"/>
      <point x="315" y="441"/>
      <point x="316" y="430" type="qcurve"/>
      <point x="322" y="411"/>
      <point x="298" y="315"/>
      <point x="268" y="231" type="qcurve" smooth="yes"/>
      <point x="232" y="128"/>
      <point x="211" y="51"/>
      <point x="222" y="38" type="qcurve"/>
      <point x="226" y="30"/>
      <point x="237" y="18"/>
      <point x="241" y="12" type="qcurve"/>
      <point x="264" y="1"/>
      <point x="366" y="14"/>
      <point x="401" y="33" type="qcurve" smooth="yes"/>
      <point x="409" y="39"/>
      <point x="415" y="50"/>
      <point x="414" y="59" type="qcurve"/>
      <point x="414" y="72"/>
      <point x="407" y="77"/>
      <point x="396" y="77" type="qcurve" smooth="yes"/>
      <point x="388" y="76"/>
      <point x="362" y="70"/>
      <point x="349" y="66" type="qcurve" smooth="yes"/>
      <point x="327" y="57"/>
      <point x="267" y="52"/>
      <point x="259" y="58" type="qcurve"/>
      <point x="255" y="63"/>
      <point x="284" y="149"/>
      <point x="315" y="236" type="qcurve" smooth="yes"/>
      <point x="344" y="317"/>
      <point x="362" y="411"/>
      <point x="355" y="446" type="qcurve" smooth="yes"/>
      <point x="349" y="471"/>
      <point x="314" y="496"/>
      <point x="290" y="492" type="qcurve"/>
      <point x="290" y="492" name="inserted"/>
      <point x="290" y="492"/>
    </contour>
  </outline>
</glyph>
<glyph name="glyph00085" format="1">
  <advance width="1024"/>
  <unicode hex="007B"/>
  <outline>
    <contour>
      <point x="479" y="784" type="qcurve"/>
      <point x="465" y="778"/>
      <point x="434" y="746"/>
      <point x="425" y="727" type="qcurve" smooth="yes"/>
      <point x="421" y="718"/>
      <point x="416" y="695"/>
      <point x="415" y="678" type="qcurve"/>
      <point x="412" y="657"/>
      <point x="426" y="616"/>
      <point x="454" y="558" type="qcurve" smooth="yes"/>
      <point x="469" y="527"/>
      <point x="480" y="491"/>
      <point x="480" y="468" type="qcurve" smooth="yes"/>
      <point x="481" y="452"/>
      <point x="480" y="441"/>
      <point x="476" y="435" type="qcurve"/>
      <point x="473" y="426"/>
      <point x="452" y="410"/>
      <point x="423" y="394" type="qcurve" smooth="yes"/>
      <point x="409" y="386"/>
      <point x="389" y="374"/>
      <point x="388" y="372" type="qcurve"/>
      <point x="385" y="367"/>
      <point x="397" y="357"/>
      <point x="410" y="353" type="qcurve" smooth="yes"/>
      <point x="414" y="351"/>
      <point x="425" y="347"/>
      <point x="428" y="345" type="qcurve"/>
      <point x="438" y="338"/>
      <point x="444" y="286"/>
      <point x="442" y="228" type="qcurve" smooth="yes"/>
      <point x="440" y="181"/>
      <point x="440" y="111"/>
      <point x="442" y="102" type="qcurve"/>
      <point x="445" y="87" name="inserted"/>
      <point x="469" y="49"/>
      <point x="490" y="26" type="qcurve" smooth="yes"/>
      <point x="507" y="8" name="inserted"/>
      <point x="525" y="-4"/>
      <point x="527" y="1" type="qcurve"/>
      <point x="528" y="3" name="inserted"/>
      <point x="517" y="16"/>
      <point x="507" y="27" type="qcurve" smooth="yes"/>
      <point x="490" y="45" name="inserted"/>
      <point x="469" y="74"/>
      <point x="464" y="85" type="qcurve" smooth="yes"/>
      <point x="461" y="94" type="line"/>
      <point x="461" y="201" type="line" smooth="yes"/>
      <point x="461" y="277"/>
      <point x="459" y="315"/>
      <point x="457" y="320" type="qcurve"/>
      <point x="454" y="332"/>
      <point x="446" y="345"/>
      <point x="440" y="349" type="qcurve" smooth="yes" name="inserted"/>
      <point x="433" y="354"/>
      <point x="414" y="363"/>
      <point x="410" y="363" type="qcurve" smooth="yes" name="inserted"/>
      <point x="405" y="364"/>
      <point x="419" y="372"/>
      <point x="442" y="385" type="qcurve" smooth="yes"/>
      <point x="463" y="396"/>
      <point x="480" y="408"/>
      <point x="486" y="413" type="qcurve"/>
      <point x="495" y="423"/>
      <point x="501" y="445"/>
      <point x="499" y="465" type="qcurve"/>
      <point x="499" y="475"/>
      <point x="497" y="493"/>
      <point x="496" y="498" type="qcurve"/>
      <point x="493" y="509"/>
      <point x="475" y="553"/>
      <point x="464" y="575" type="qcurve" smooth="yes"/>
      <point x="452" y="600" name="inserted"/>
      <point x="437" y="633"/>
      <point x="435" y="641" type="qcurve" smooth="yes"/>
      <point x="433" y="659"/>
      <point x="437" y="702"/>
      <point x="442" y="717" type="qcurve"/>
      <point x="450" y="733"/>
      <point x="477" y="764"/>
      <point x="490" y="771" type="qcurve"/>
      <point x="497" y="774"/>
      <point x="516" y="775"/>
      <point x="522" y="772" type="qcurve" smooth="yes"/>
      <point x="524" y="772"/>
      <point x="530" y="762"/>
      <point x="533" y="756" type="qcurve" smooth="yes"/>
      <point x="540" y="744"/>
      <point x="547" y="735"/>
      <point x="551" y="732" type="qcurve" smooth="yes" name="inserted"/>
      <point x="554" y="730"/>
      <point x="561" y="732"/>
      <point x="561" y="735" type="qcurve"/>
      <point x="561" y="739"/>
      <point x="546" y="765"/>
      <point x="540" y="772" type="qcurve"/>
      <point x="536" y="777"/>
      <point x="529" y="782"/>
      <point x="523" y="783" type="qcurve"/>
      <point x="513" y="787"/>
      <point x="487" y="787"/>
      <point x="479" y="784" type="qcurve"/>
      <point x="479" y="784" name="inserted"/>
      <point x="479" y="784"/>
    </contour>
  </outline>
</glyph>
